<svg width="32" height="32" viewBox="0 0 32 32" fill="none" xmlns="http://www.w3.org/2000/svg">
<path d="M16 11.25C14.9661 11.25 14.125 12.0911 14.125 13.125C14.125 14.1589 14.9661 15 16 15C17.0339 15 17.875 14.1589 17.875 13.125C17.875 12.0911 17.0339 11.25 16 11.25Z" fill="#F84777"/>
<path d="M16 0C8.76294 0 2.875 5.88794 2.875 13.125C2.875 18.96 6.71997 24.0757 12.2776 25.7141L15.1614 31.4817C15.3203 31.7993 15.6448 32 16 32C16.355 32 16.6797 31.7993 16.8384 31.4817L19.7222 25.7144C25.28 24.0759 29.125 18.9602 29.125 13.125C29.125 5.88794 23.2371 0 16 0V0ZM16 16.875C13.9321 16.875 12.25 15.1929 12.25 13.125C12.25 11.0571 13.9321 9.375 16 9.375C18.0679 9.375 19.75 11.0571 19.75 13.125C19.75 15.1929 18.0679 16.875 16 16.875Z" fill="#F84777"/>
</svg>
